<svg width="48" height="40" xmlns="http://www.w3.org/2000/svg" xmlns:xlink="http://www.w3.org/1999/xlink">
    <defs>
        <path id="t" d="M29 12.62h-9.795V40H9.843V12.62H0V4h29z" />
        <path
            d="M35 13V4h1v9h-1zm0-11V0h1v2h-1zm13 11h-1.748V8.05c0-.948-.17-1.638-.507-2.067-.338-.43-.851-.644-1.54-.644-.357 0-.715.06-1.073.178-.357.119-.695.28-1.013.483a3.679 3.679 0 00-.834.729 2.957 2.957 0 00-.537.932V13H39V4.153h1.59V6.05c.41-.622 1.003-1.119 1.778-1.492A5.764 5.764 0 0144.9 4c.596 0 1.092.093 1.49.28a2.4 2.4 0 01.953.78c.239.333.408.725.507 1.177.1.452.149.944.149 1.475V13z"
            id="in" />
    </defs>
    <g fill="none" fill-rule="evenodd">
        <g>
            <use fill="#FFF" xlink:href="#t" />
            <use fill="#011627" xlink:href="#t" />
        </g>
        <g>
            <use fill="#FFF" xlink:href="#in" />
            <use fill="#000" xlink:href="#in" />
        </g>
    </g>
</svg>